C:\Users\r0593348\3dpredictsim\Results\Batchsim_tmt_linear_v2\Pog_s1_tmt_bCst_d02_k250_ig24_act_GRF.mot
nRows=20
nColumns=19

name C:\Users\r0593348\3dpredictsim\Results\Batchsim_tmt_linear_v2\Pog_s1_tmt_bCst_d02_k250_ig24_act_GRF.mot
datacolumns 19
datarows 20
range 0.0000000000 0.2071676341
endheader
time 	ground_force_vx	ground_force_vy	ground_force_vz	ground_force_px	ground_force_py	ground_force_pz	1_ground_force_vx	1_ground_force_vy	1_ground_force_vz	1_ground_force_px	1_ground_force_py	1_ground_force_pz	ground_torque_x	ground_torque_y	ground_torque_z	1_ground_torque_x	1_ground_torque_y	1_ground_torque_z
        0.0000000000	     -136.8863589430	      107.7324698888	        3.5705406011	        0.3023028790	        0.0000000000	        0.0451748766	       37.7750622660	      268.7951045708	       -9.2823317633	       -0.3367993034	        0.0000000000	       -0.0458137678	        0.0000000000	        0.0000000000	        0.0000000000	        0.0000000000	        0.0000000000	        0.0000000000	
        0.0109035597	     -193.2296197422	      181.9245217365	        7.2124671838	        0.2847942420	        0.0000000000	        0.0496990286	       40.6080893879	      242.3702363957	       -9.6068166857	       -0.3366274499	        0.0000000000	       -0.0458207694	        0.0000000000	        0.0000000000	        0.0000000000	        0.0000000000	        0.0000000000	        0.0000000000	
        0.0218071194	     -139.9040576452	      381.7313817829	        0.1406110036	        0.2482801616	        0.0000000000	        0.0564285776	       42.6370207536	      208.4619434204	      -14.7247685440	       -0.3362993877	        0.0000000000	       -0.0461223920	        0.0000000000	        0.0000000000	        0.0000000000	        0.0000000000	        0.0000000000	        0.0000000000	
        0.0327106791	     -124.5704639676	      576.2650367683	      -10.0473068148	        0.2294905236	        0.0000000000	        0.0583486675	       38.8167431619	      169.1612767757	      -18.9857536120	       -0.3361714941	        0.0000000000	       -0.0464537384	        0.0000000000	        0.0000000000	        0.0000000000	        0.0000000000	        0.0000000000	        0.0000000000	
        0.0436142388	     -129.4182581730	      737.6346351979	      -14.4606296429	        0.2213022574	        0.0000000000	        0.0584309823	       28.9751036091	      120.9197313730	      -20.4028121710	       -0.3362183786	        0.0000000000	       -0.0468135253	        0.0000000000	        0.0000000000	        0.0000000000	        0.0000000000	        0.0000000000	        0.0000000000	
        0.0545177985	     -137.0132606771	      864.0904675152	      -14.9243788047	        0.2151584832	        0.0000000000	        0.0582912740	       11.7180819541	       61.3825143507	      -16.6367099767	       -0.3367926697	        0.0000000000	       -0.0473897781	        0.0000000000	        0.0000000000	        0.0000000000	        0.0000000000	        0.0000000000	        0.0000000000	
        0.0654213582	     -134.1730199470	      921.1917618711	      -13.1534762036	        0.2112623529	        0.0000000000	        0.0578722360	       -6.9874617872	       11.4888076794	       -5.1364001342	       -0.3433827293	        0.0000000000	       -0.0480291812	        0.0000000000	        0.0000000000	        0.0000000000	        0.0000000000	        0.0000000000	        0.0000000000	
        0.0763249178	     -125.2586921035	      921.7445505148	      -10.0906745540	        0.2089315648	        0.0000000000	        0.0573060781	      -12.0233468303	       10.3064759062	       -0.9216705036	       -0.3404173399	        0.0000000000	       -0.0440737007	        0.0000000000	        0.0000000000	        0.0000000000	        0.0000000000	        0.0000000000	        0.0000000000	
        0.0872284775	     -111.1020429772	      904.8725633872	       -8.1981606559	        0.2073003015	        0.0000000000	        0.0566472213	      -16.6843077229	       12.1307573274	       -0.5281447150	       -0.3282571993	        0.0000000000	       -0.0435812197	        0.0000000000	        0.0000000000	        0.0000000000	        0.0000000000	        0.0000000000	        0.0000000000	
        0.0981320372	      -97.0071214710	      874.7235243850	       -9.5306276194	        0.2072682652	        0.0000000000	        0.0561752144	      -18.0321878909	       11.5974283218	       -0.3055132502	       -0.3115850986	        0.0000000000	       -0.0434114787	        0.0000000000	        0.0000000000	        0.0000000000	        0.0000000000	        0.0000000000	        0.0000000000	
        0.1090355969	      -84.4303529158	      839.7352326905	      -11.9519853742	        0.2087134553	        0.0000000000	        0.0559092634	      -17.1313181108	        9.9612981225	       -0.0201540165	        0.0000000000	        0.0000000000	        0.0000000000	        0.0000000000	        0.0000000000	        0.0000000000	        0.0000000000	        0.0000000000	        0.0000000000	
        0.1199391566	      -73.2813719312	      805.3817927641	      -13.8709011839	        0.2111067612	        0.0000000000	        0.0557800296	      -13.1627676712	        7.0428672936	        0.1202097785	        0.0000000000	        0.0000000000	        0.0000000000	        0.0000000000	        0.0000000000	        0.0000000000	        0.0000000000	        0.0000000000	        0.0000000000	
        0.1308427163	      -63.3686204776	      774.4764404890	      -14.5797963350	        0.2139282365	        0.0000000000	        0.0557214100	       -8.1957304593	        4.1365332404	        0.0722061433	        0.0000000000	        0.0000000000	        0.0000000000	        0.0000000000	        0.0000000000	        0.0000000000	        0.0000000000	        0.0000000000	        0.0000000000	
        0.1417462760	      -55.8716911367	      748.5199170325	      -15.6066557064	        0.2167027465	        0.0000000000	        0.0556482026	       -5.2557283690	        2.5260572645	        0.0483118201	        0.0000000000	        0.0000000000	        0.0000000000	        0.0000000000	        0.0000000000	        0.0000000000	        0.0000000000	        0.0000000000	        0.0000000000	
        0.1526498357	      -49.0013264940	      725.1752031011	      -16.8731445807	        0.2191273937	        0.0000000000	        0.0555361847	       -3.8768992588	        1.7923127965	        0.0316576950	        0.0000000000	        0.0000000000	        0.0000000000	        0.0000000000	        0.0000000000	        0.0000000000	        0.0000000000	        0.0000000000	        0.0000000000	
        0.1635533954	      -42.3769057743	      702.2814730663	      -18.1642268505	        0.2212175390	        0.0000000000	        0.0553983430	       -2.8529760563	        1.2766500505	        0.0203255943	        0.0000000000	        0.0000000000	        0.0000000000	        0.0000000000	        0.0000000000	        0.0000000000	        0.0000000000	        0.0000000000	        0.0000000000	
        0.1744569551	      -36.2963670936	      679.1998822132	      -19.0185713022	        0.2231577395	        0.0000000000	        0.0552802683	       -2.0412175989	        0.8879224244	        0.0128399586	        0.0000000000	        0.0000000000	        0.0000000000	        0.0000000000	        0.0000000000	        0.0000000000	        0.0000000000	        0.0000000000	        0.0000000000	
        0.1853605148	      -30.5090496772	      657.1983451263	      -19.8428086562	        0.2249703680	        0.0000000000	        0.0551769391	       -1.5020503977	        0.6375699753	        0.0086222343	        0.0000000000	        0.0000000000	        0.0000000000	        0.0000000000	        0.0000000000	        0.0000000000	        0.0000000000	        0.0000000000	        0.0000000000	
        0.1962640745	      -25.1373805136	      636.9454702368	      -20.7419941630	        0.2266481787	        0.0000000000	        0.0550849712	       -1.1751674412	        0.4885363081	        0.0060086247	        0.0000000000	        0.0000000000	        0.0000000000	        0.0000000000	        0.0000000000	        0.0000000000	        0.0000000000	        0.0000000000	        0.0000000000	
        0.2071676341	      -20.1772914396	      618.8385379432	      -21.7123851912	        0.2281651411	        0.0000000000	        0.0550094837	       -0.9920515838	        0.4052906804	        0.0050329723	        0.0000000000	        0.0000000000	        0.0000000000	        0.0000000000	        0.0000000000	        0.0000000000	        0.0000000000	        0.0000000000	        0.0000000000	
